<svg width="15" height="16" viewBox="0 0 15 16" fill="none" xmlns="http://www.w3.org/2000/svg">
<path d="M14.4647 14.6084C14.4532 14.54 14.4389 14.4746 14.4187 14.4091C14.2605 13.7877 13.9039 12.6548 13.7429 12.1493C13.7256 12.0601 13.6968 11.9769 13.6623 11.8966C13.6623 11.8936 13.6623 11.8936 13.6623 11.8936C13.5646 11.6736 13.4006 11.4892 13.2022 11.3644C13.1907 11.3554 13.1648 11.3405 13.1303 11.3257C13.1159 11.3198 13.1044 11.3108 13.09 11.3049C12.6989 11.1146 11.491 10.615 11.491 10.615C10.8871 10.3444 10.263 10.1125 9.62457 9.88062C9.50953 10.3712 8.42815 13.6271 8.25559 14.0761L8.11754 11.0522C8.16356 10.9808 8.19519 10.9005 8.22971 10.8202L8.68123 9.89846C8.36487 10.172 7.88747 10.3474 7.35542 10.3474C6.83487 10.3474 6.36897 10.1809 6.05262 9.91927L6.49551 10.8232C6.53002 10.9005 6.56454 10.9838 6.60768 11.0552L6.46963 14.0791C6.29707 13.6272 5.21572 10.3742 5.10068 9.88359C4.46222 10.1185 3.83814 10.3504 3.2342 10.618C3.2342 10.618 2.0263 11.1176 1.63517 11.3079C1.62079 11.3138 1.60929 11.3198 1.59491 11.3286C1.5604 11.3465 1.53739 11.3584 1.52301 11.3673C1.3217 11.4922 1.16064 11.6736 1.06286 11.8966C1.06286 11.8966 1.06286 11.8966 1.06286 11.8996C1.02835 11.9799 0.99959 12.0661 0.982335 12.1523C0.821282 12.6578 0.461789 13.7877 0.306489 14.4122C0.286357 14.4775 0.269101 14.5429 0.260473 14.6113C0.251846 14.6708 0.246094 14.7333 0.246094 14.7957C0.246094 15.4617 0.766639 15.9999 1.41085 15.9999L13.323 15.9969C13.9672 15.9969 14.4878 15.4587 14.4878 14.7927C14.4791 14.7303 14.4734 14.6708 14.4647 14.6084Z" fill="#C1C1C1"/>
<path d="M10.4038 4.28174C10.4038 4.06765 10.4441 3.29753 10.4441 3.11913C10.4441 1.39751 9.09237 0 7.4272 0C7.42433 0 7.42433 0 7.42145 0C7.41858 0 7.41858 0 7.4157 0C7.39557 0 7.37831 0 7.35818 0C7.33805 0 7.3208 0 7.30066 0C7.29779 0 7.29779 0 7.29491 0C7.29204 0 7.29204 0 7.28916 0C5.62399 0 4.2723 1.39751 4.2723 3.11913C4.2723 3.29753 4.31256 4.06765 4.31256 4.28174C4.23779 4.28471 3.56482 4.1182 3.63671 4.95374C3.78914 6.7289 4.44485 6.38399 4.46499 6.38399C4.78709 7.45442 5.2875 8.13528 5.77641 8.56946C6.54141 9.24737 7.28341 9.3217 7.29491 9.3217C7.31504 9.3217 7.33805 9.32468 7.35818 9.32468C7.37831 9.32468 7.39845 9.32468 7.42145 9.3217C7.43296 9.3217 8.1692 9.24737 8.93132 8.57835C9.42314 8.14423 9.92643 7.46034 10.2514 6.38399C10.2715 6.38399 10.9243 6.7289 11.0797 4.95374C11.1515 4.1182 10.4757 4.28468 10.4038 4.28174Z" fill="#C1C1C1"/>
</svg>
