<svg width="16" height="16" viewBox="0 0 16 16" fill="none" xmlns="http://www.w3.org/2000/svg">
<path d="M15.4497 6.28916L13.5134 4.65753V2.0481C13.5134 1.75425 13.2821 1.51516 12.9979 1.51516H11.7795C11.4953 1.51516 11.2641 1.75425 11.2641 2.0481V2.7621L8.67673 0.581926C8.48957 0.424272 8.24289 0.337402 7.98216 0.337402C7.72245 0.337402 7.47695 0.423739 7.29082 0.580569L0.517889 6.28911C0.210155 6.54836 0.228618 6.77419 0.266997 6.88572C0.305282 6.997 0.428573 7.18373 0.82389 7.18373H1.75131V14.6908C1.75131 15.2266 2.17175 15.6624 2.68853 15.6624H5.61733C6.12975 15.6624 6.53111 15.2356 6.53111 14.6908V11.6123C6.53111 11.3484 6.76565 11.1082 7.02315 11.1082H8.9913C9.23676 11.1082 9.43648 11.3343 9.43648 11.6123V14.6908C9.43648 15.2174 9.87641 15.6624 10.3971 15.6624H13.2791C13.7958 15.6624 14.2163 15.2265 14.2163 14.6908V7.18373H15.1437C15.539 7.18373 15.6623 6.997 15.7006 6.88572C15.739 6.77419 15.7574 6.54836 15.4497 6.28916Z" fill="#C1C1C1"/>
</svg>
