<svg width="16" height="14" viewBox="0 0 16 14" fill="none" xmlns="http://www.w3.org/2000/svg">
<path d="M2.56058 7.75H11.2498C11.664 7.75 11.9998 7.4142 11.9998 7C11.9998 6.58581 11.664 6.25001 11.2498 6.25001H2.56058L3.53028 5.28032C3.82318 4.98742 3.82318 4.51257 3.53028 4.21967C3.23743 3.92678 2.76253 3.92678 2.46963 4.21967L0.219749 6.46961C0.202199 6.48716 0.185599 6.50556 0.169899 6.52476C0.163049 6.53311 0.157099 6.54196 0.150649 6.55051C0.142399 6.56151 0.133899 6.57226 0.126249 6.58371C0.119249 6.59416 0.113199 6.60501 0.106799 6.61571C0.100649 6.62601 0.0941994 6.63606 0.0885494 6.64666C0.0826495 6.65766 0.0776995 6.66896 0.0723995 6.68016C0.0671996 6.69111 0.0617496 6.70191 0.0570996 6.7131C0.0525997 6.72405 0.0488997 6.7352 0.0449497 6.7463C0.0405997 6.7583 0.0359998 6.77015 0.0322998 6.7824C0.0289498 6.7935 0.0264998 6.80475 0.0236999 6.816C0.0205499 6.82845 0.0170499 6.84085 0.0145499 6.85355C0.0119999 6.8665 0.0104499 6.8796 0.00859995 6.89265C0.00699996 6.9038 0.00484997 6.9148 0.00374998 6.9261C0.00134999 6.9503 9.99994e-05 6.97465 4.99997e-05 6.99895C4.99997e-05 6.9993 0 6.9997 0 7.00005C0 7.0004 4.99997e-05 7.0008 4.99997e-05 7.00115C9.99994e-05 7.0255 0.00134999 7.0498 0.00374998 7.07405C0.00484997 7.0852 0.00694996 7.09605 0.00849995 7.1071C0.0103999 7.1203 0.0119499 7.1335 0.0145499 7.1466C0.0170499 7.1592 0.0204999 7.1714 0.0236499 7.18375C0.0264998 7.1951 0.0289998 7.20655 0.0323998 7.2178C0.0360498 7.22985 0.0405997 7.2415 0.0447997 7.2533C0.0488497 7.2646 0.0525497 7.27595 0.0571496 7.28705C0.0616996 7.29805 0.0670496 7.3086 0.0721495 7.31935C0.0775495 7.3308 0.0826495 7.34235 0.0886494 7.3536C0.0941494 7.36385 0.100399 7.3736 0.106349 7.38355C0.112899 7.3946 0.119149 7.40575 0.126349 7.4165C0.133649 7.42745 0.141799 7.4377 0.149649 7.44825C0.156449 7.4573 0.162749 7.46665 0.169999 7.47545C0.184949 7.49365 0.200799 7.5111 0.217349 7.52785C0.218149 7.52865 0.218799 7.52955 0.219599 7.53035L2.46958 9.78038C2.61608 9.92683 2.80798 10.0001 2.99993 10.0001C3.19183 10 3.38383 9.92683 3.53023 9.78043C3.82313 9.48753 3.82313 9.01269 3.53028 8.71979L2.56058 7.75Z" fill="#C1C1C1"/>
<path d="M15.2499 0.25H5.75C5.3358 0.25 5 0.585798 5 0.999995V3.99998C5 4.41417 5.3358 4.74997 5.75 4.74997C6.16419 4.74997 6.49999 4.41417 6.49999 3.99998V1.74999H14.5V12.25H6.49999V9.99994C6.49999 9.58574 6.16419 9.24994 5.75 9.24994C5.3358 9.24994 5 9.58574 5 9.99994V13C5 13.4142 5.3358 13.75 5.75 13.75H15.2499C15.6641 13.75 15.9999 13.4142 15.9999 13V0.999995C15.9999 0.585798 15.6641 0.25 15.2499 0.25Z" fill="#C1C1C1"/>
</svg>
