<svg width="16" height="12" viewBox="0 0 16 12" fill="none" xmlns="http://www.w3.org/2000/svg">
<path d="M4.50353 2.89538H12.4712V2.38043C12.4712 1.95544 12.1345 1.60801 11.7241 1.60801H8.43559V1.15829C8.43559 0.518382 7.9322 0 7.31527 0H5.40271C5.10386 0 4.82297 0.120826 4.61045 0.340548C4.39793 0.56027 4.28172 0.848617 4.28172 1.15829V1.60868H0.993185C0.582126 1.60801 0.246094 1.95541 0.246094 2.38043V9.27867L2.75767 4.01798C3.06249 3.37734 3.81423 2.89538 4.50353 2.89538ZM5.02884 1.15829C5.02884 1.05599 5.06935 0.959162 5.13908 0.886399C5.20881 0.812235 5.30311 0.771748 5.40206 0.771748H7.31463C7.52117 0.771748 7.68785 0.944775 7.68785 1.15829V1.60868H5.02887V1.15829H5.02884Z" fill="#C1C1C1"/>
<path d="M15.2352 3.6665H4.50359C4.09318 3.6665 3.60774 3.97821 3.42776 4.35858L0.541668 10.4034C0.359721 10.7831 0.547641 11.0948 0.958053 11.0948H11.6897C12.1001 11.0948 12.5862 10.7837 12.7668 10.4034L15.6523 4.35858C15.8335 3.97821 15.6469 3.6665 15.2352 3.6665Z" fill="#C1C1C1"/>
</svg>
