<svg width="16" height="14" viewBox="0 0 16 14" fill="none" xmlns="http://www.w3.org/2000/svg">
<path d="M15.452 0H0.547943C0.245259 0 0 0.253957 0 0.567206V5.3545C0 5.66775 0.245259 5.9217 0.547943 5.9217H1.14513V13.4328C1.14513 13.746 1.39039 14 1.69307 14H3.06052H6.62455H14.306C14.6087 14 14.8539 13.746 14.8539 13.4328V5.9217H15.4521C15.7547 5.9217 16 5.66775 16 5.3545V0.567206C15.9999 0.253957 15.7547 0 15.452 0ZM12.1151 10.3237H9.02425V7.21312H12.1151V10.3237ZM6.07661 7.2352V12.8656H3.60846V7.2352C3.60846 7.22302 3.61803 7.21312 3.62972 7.21312H6.05528C6.06704 7.21319 6.07661 7.22302 6.07661 7.2352Z" fill="#C1C1C1"/>
</svg>
